<svg width="424" height="426" viewBox="0 0 424 426" fill="none" xmlns="http://www.w3.org/2000/svg">
<rect width="423.885" height="425.177" rx="28" fill="white"/>
<path d="M423.885 95.6343V143.725L222.381 53.7949C216.13 51.0054 208.986 51.0174 202.745 53.8277L54.6589 120.511C48.9192 123.096 45.2284 128.805 45.2284 135.1V206.126C45.2284 213.712 49.7415 220.572 56.7087 223.574L202.352 286.341C208.735 289.092 215.976 289.061 222.336 286.256L299.244 252.331L344.472 233.974V269.969C344.472 277.1 340.261 283.559 333.736 286.438L212.574 339.883L0 248.272V95.6343L212.38 0L423.885 95.6343Z" fill="black"/>
<path d="M-1.14441e-05 329.179V280.905L201.473 371.163C207.741 373.971 214.912 373.959 221.17 371.13L369.246 304.198C374.975 301.609 378.656 295.905 378.656 289.619V218.201C378.656 210.624 374.154 203.771 367.2 200.763L221.565 137.761C215.163 134.991 207.895 135.022 201.517 137.847L124.641 171.886L79.4126 190.313V154.119C79.4126 146.997 83.6124 140.544 90.125 137.66L211.311 84.0015L423.885 175.96V329.179L211.505 425.177L-1.14441e-05 329.179Z" fill="black"/>
</svg>
